<?xml version="1.0" standalone="no"?><!DOCTYPE svg PUBLIC "-//W3C//DTD SVG 1.1//EN" "http://www.w3.org/Graphics/SVG/1.1/DTD/svg11.dtd"><svg class="icon" width="64px" height="64.00px" viewBox="0 0 1024 1024" version="1.1" xmlns="http://www.w3.org/2000/svg"><path fill="#ffffff" d="M896 213.333333c-47.36-14.933333-99.413333-21.333333-149.333333-21.333333-83.2 0-172.8 17.066667-234.666667 64-61.866667-46.933333-151.466667-64-234.666667-64-83.2 0-172.8 17.066667-234.666666 64v625.066667c0 10.666667 10.666667 21.333333 21.333333 21.333333 4.266667 0 6.4-2.133333 10.666667-2.133333C132.266667 872.533333 215.466667 853.333333 277.333333 853.333333c83.2 0 172.8 17.066667 234.666667 64 57.6-36.266667 162.133333-64 234.666667-64 70.4 0 142.933333 12.8 202.666666 44.8 4.266667 2.133333 6.4 2.133333 10.666667 2.133334 10.666667 0 21.333333-10.666667 21.333333-21.333334V256c-25.6-19.2-53.333333-32-85.333333-42.666667m0 576c-46.933333-14.933333-98.133333-21.333333-149.333333-21.333333-72.533333 0-177.066667 27.733333-234.666667 64V341.333333c57.6-36.266667 162.133333-64 234.666667-64 51.2 0 102.4 6.4 149.333333 21.333334v490.666666z"  /></svg>