<svg id="Capa_1" enable-background="new 0 0 511.863 511.863" height="512" viewBox="0 0 511.863 511.863" width="512" xmlns="http://www.w3.org/2000/svg"><path d="m213.081 102.153h-32.648c-2.758 0-4.995 2.236-4.995 4.995v30.687h42.637v-30.687c.001-2.759-2.235-4.995-4.994-4.995z" fill="#6c7ed6"/><path d="m202.686 102.153h-22.253c-2.758 0-4.994 2.236-4.994 4.994v30.687h22.253v-30.687c0-2.758 2.236-4.994 4.994-4.994z" fill="#4f67d2"/><path d="m235.396 135.841h-76.281c-2.758 0-4.995 2.236-4.995 4.995v84.686h86.27v-84.686c.001-2.758-2.235-4.995-4.994-4.995z" fill="#4f67d2"/><path d="m181.368 135.841h-22.252c-2.758 0-4.995 2.236-4.995 4.994v84.686h22.252v-84.686c0-2.757 2.236-4.994 4.995-4.994z" fill="#324ccc"/><path d="m376.838 145.258-18.935-20.892c-1.137-1.255-2.751-1.97-4.445-1.97h-23.788c-3.313 0-5.999 2.686-5.999 5.999v97.127h54.721v-76.236c0-1.489-.553-2.925-1.554-4.028z" fill="#fee55a"/><path d="m351.923 122.396h-22.253c-3.313 0-5.999 2.686-5.999 5.999v97.127h22.253v-97.127c0-3.313 2.686-5.999 5.999-5.999z" fill="#ffd301"/><path d="m282.031 54.911c-4.128 0-7.475-3.347-7.475-7.475v-39.961c0-4.128 3.347-7.475 7.475-7.475s7.475 3.347 7.475 7.475v39.962c0 4.128-3.347 7.474-7.475 7.474z" fill="#b1dbfc"/><path d="m318.158 43.373h-72.254c-3.595 0-6.51 2.915-6.51 6.51v175.639h85.274v-175.639c0-3.596-2.914-6.51-6.51-6.51z" fill="#dfebfa"/><path d="m268.157 43.373h-22.253c-3.595 0-6.51 2.914-6.51 6.51v175.64h22.252v-175.64c.001-3.596 2.915-6.51 6.511-6.51z" fill="#b1dbfc"/><path d="m267.819 199.436c-4.128 0-7.475-3.347-7.475-7.475v-118.844c0-4.128 3.347-7.475 7.475-7.475s7.475 3.347 7.475 7.475v118.845c-.001 4.128-3.347 7.474-7.475 7.474z" fill="#695d67"/><path d="m296.243 199.436c-4.128 0-7.475-3.347-7.475-7.475v-118.844c0-4.128 3.347-7.475 7.475-7.475s7.475 3.347 7.475 7.475v118.845c0 4.128-3.346 7.474-7.475 7.474z" fill="#695d67"/><path d="m210.189 173.831h-26.862c-4.128 0-7.475-3.347-7.475-7.475s3.347-7.475 7.475-7.475h26.862c4.128 0 7.475 3.347 7.475 7.475s-3.347 7.475-7.475 7.475z" fill="#6c7ed6"/><path d="m210.189 199.436h-26.862c-4.128 0-7.475-3.347-7.475-7.475s3.347-7.475 7.475-7.475h26.862c4.128 0 7.475 3.347 7.475 7.475-.001 4.129-3.347 7.475-7.475 7.475z" fill="#6c7ed6"/><path d="m378.392 158.882h-26.862c-4.128 0-7.475 3.347-7.475 7.475s3.347 7.475 7.475 7.475h26.862z" fill="#ffa85d"/><path d="m378.392 184.487h-26.862c-4.128 0-7.475 3.347-7.475 7.475s3.347 7.475 7.475 7.475h26.862z" fill="#ffa85d"/><path d="m467.874 390.565h-370.847c-24.194 0-43.878 24.758-43.878 48.952s19.684 48.952 43.878 48.952h370.846c.163 0 .321.019.483.025v-97.954c-.161.006-.319.025-.482.025z" fill="#dfebfa"/><g fill="#b1dbfc"><path d="m111.982 439.517c0-24.194 19.684-48.952 43.877-48.952h-58.832c-24.194 0-43.877 24.758-43.877 48.952s19.684 48.952 43.877 48.952h58.833c-24.194 0-43.878-24.758-43.878-48.952z"/><path d="m436.408 433.289h-328.888c-4.204 0-7.612-3.408-7.612-7.612s3.408-7.612 7.612-7.612h328.887c4.204 0 7.612 3.408 7.612 7.612s-3.408 7.612-7.611 7.612z"/><path d="m436.408 460.967h-328.888c-4.204 0-7.612-3.408-7.612-7.612s3.408-7.612 7.612-7.612h328.887c4.204 0 7.612 3.408 7.612 7.612s-3.408 7.612-7.611 7.612z"/></g><path d="m106.506 395.639h361.368c7.861 0 14.234-6.373 14.234-14.235 0-7.861-6.373-14.234-14.234-14.234h-361.368z" fill="#60b8fe"/><path d="m467.874 483.394h-361.368v28.469h361.368c7.861 0 14.234-6.373 14.234-14.235 0-7.861-6.373-14.234-14.234-14.234z" fill="#60b8fe"/><path d="m124.878 381.405c0-7.861 6.373-14.234 14.235-14.234h-32.607v28.469h32.607c-7.862-.001-14.235-6.374-14.235-14.235z" fill="#23a8fe"/><path d="m139.113 483.394h-32.607v28.469h32.607c-7.861 0-14.235-6.373-14.235-14.235 0-7.861 6.373-14.234 14.235-14.234z" fill="#23a8fe"/><path d="m107.521 483.394h-5.419c-24.194 0-43.878-19.684-43.878-43.878s19.684-43.878 43.878-43.878h5.419v-28.468h-5.419c-39.892 0-72.346 32.455-72.346 72.346s32.455 72.346 72.346 72.346h5.419z" fill="#6c7ed6"/><path d="m467.874 245.888h-370.847c-24.194 0-43.878 24.775-43.878 48.985s19.684 48.986 43.878 48.986h370.846c.163 0 .321.019.483.025v-98.02c-.161.005-.319.024-.482.024z" fill="#dfebfa"/><path d="m111.982 294.873c0-24.211 19.684-48.985 43.877-48.985h-58.832c-24.194 0-43.877 24.775-43.877 48.985 0 24.211 19.684 48.986 43.877 48.986h58.833c-24.194 0-43.878-24.775-43.878-48.986z" fill="#b1dbfc"/><path d="m436.408 288.642h-328.888c-4.204 0-7.612-3.41-7.612-7.617s3.408-7.617 7.612-7.617h328.887c4.204 0 7.612 3.41 7.612 7.617s-3.408 7.617-7.611 7.617z" fill="#b1dbfc"/><path d="m436.408 316.339h-328.888c-4.204 0-7.612-3.41-7.612-7.617s3.408-7.617 7.612-7.617h328.887c4.204 0 7.612 3.41 7.612 7.617s-3.408 7.617-7.611 7.617z" fill="#b1dbfc"/><path d="m106.506 250.966h361.368c7.861 0 14.234-6.377 14.234-14.244s-6.373-14.244-14.234-14.244h-361.368z" fill="#ff656f"/><path d="m467.874 338.781h-361.368v28.488h361.368c7.861 0 14.234-6.377 14.234-14.244 0-7.866-6.373-14.244-14.234-14.244z" fill="#ff656f"/><path d="m124.878 236.722c0-7.867 6.373-14.244 14.235-14.244h-32.607v28.488h32.607c-7.862 0-14.235-6.377-14.235-14.244z" fill="#ff4756"/><path d="m139.113 338.781h-32.607v28.488h32.607c-7.861 0-14.235-6.377-14.235-14.244 0-7.866 6.373-14.244 14.235-14.244z" fill="#ff4756"/><path d="m107.521 338.781h-5.419c-24.194 0-43.878-19.697-43.878-43.908s19.684-43.908 43.878-43.908h5.419v-28.488h-5.419c-39.892 0-72.346 32.477-72.346 72.396s32.455 72.396 72.346 72.396h5.419z" fill="#ab6b51"/></svg>