<?xml version="1.0" standalone="no"?><!DOCTYPE svg PUBLIC "-//W3C//DTD SVG 1.1//EN" "http://www.w3.org/Graphics/SVG/1.1/DTD/svg11.dtd"><svg t="1574142464155" class="icon" viewBox="0 0 1024 1024" version="1.1" xmlns="http://www.w3.org/2000/svg" p-id="2610" xmlns:xlink="http://www.w3.org/1999/xlink" width="128" height="128"><defs><style type="text/css"></style></defs><path d="M832 800V896a128 128 0 0 1-128 128H128a128 128 0 0 1-128-128V128a128 128 0 0 1 128-128h576a128 128 0 0 1 128 128v160a32 32 0 1 1-64 0V128a64 64 0 0 0-64-64H128a64 64 0 0 0-64 64v768a64 64 0 0 0 64 64h576a64 64 0 0 0 64-64v-96a32 32 0 1 1 64 0zM192 192h448a32 32 0 1 1 0 64H192a32 32 0 1 1 0-64z m0 192h448a32 32 0 1 1 0 64H192a32 32 0 1 1 0-64z m0 192h192a32 32 0 1 1 0 64H192a32 32 0 1 1 0-64z m0 192h192a32 32 0 1 1 0 64H192a32 32 0 1 1 0-64z m704.896-404.096l67.904 67.84-316.8 316.8-67.84-67.84 316.8-316.8z m22.656-22.656l11.904-11.904a32 32 0 0 1 45.248 0l22.656 22.656a32 32 0 0 1 0 45.248l-11.904 11.904-67.904-67.84zM557.504 703.36l67.84 67.84-18.496 18.56-73.472 26.112a16 16 0 0 1-20.48-20.48l26.112-73.472 18.56-18.56z" fill="#ffffff" p-id="2611"></path></svg>