<?xml version="1.0" encoding="iso-8859-1"?>
<!-- Generator: Adobe Illustrator 19.0.0, SVG Export Plug-In . SVG Version: 6.00 Build 0)  -->
<svg version="1.1" id="Capa_1" xmlns="http://www.w3.org/2000/svg" xmlns:xlink="http://www.w3.org/1999/xlink" x="0px" y="0px"
	 viewBox="0 0 512.001 512.001" style="enable-background:new 0 0 512.001 512.001;" xml:space="preserve">
<path style="fill:#F2427F;" d="M289.63,13.872c-64.935,15.207-113.292,73.479-113.292,143.05s48.357,127.843,113.292,143.05
	c64.935-15.207,113.292-73.479,113.292-143.05S354.564,29.079,289.63,13.872z"/>
<path style="fill:#FFFFFF;" d="M246.071,156.922c0-17.547,10.38-32.66,25.33-39.56c-5.547-2.56-11.719-3.999-18.229-3.999
	c-24.057,0-43.559,19.502-43.559,43.559s19.502,43.559,43.559,43.559c6.511,0,12.682-1.439,18.229-3.999
	C256.451,189.581,246.071,174.468,246.071,156.922z"/>
<path style="fill:#FFD41D;" d="M296.731,156.922c0-17.547-10.38-32.66-25.33-39.56c-14.95,6.901-25.33,22.014-25.33,39.56
	s10.38,32.659,25.33,39.56C286.352,189.581,296.731,174.468,296.731,156.922z"/>
<path style="fill:#FFFFFF;" d="M283.754,204.55c-8.77-2.64-18.089-4.069-27.754-4.069l0,0c-44.845,0-82.312,30.61-91.413,71.458
	c25.09,19.968,56.855,31.905,91.413,31.905c9.489,0,18.766-0.905,27.754-2.625c-23.744-4.542-45.458-14.795-63.659-29.28
	C227.235,239.895,251.834,214.158,283.754,204.55z"/>
<path style="fill:#FF991F;" d="M283.754,204.55c-31.92,9.608-56.519,35.345-63.659,67.389c18.2,14.484,39.915,24.738,63.659,29.28
	c23.743-4.542,45.458-14.795,63.659-29.28C340.273,239.895,315.675,214.158,283.754,204.55z"/>
<g>
	<path style="fill:#00C3FF;" d="M79.589,434.085c-12.637,5.396-21.495,17.934-21.495,32.543s8.858,27.147,21.495,32.543
		c12.637-5.396,21.494-17.934,21.494-32.543C101.083,452.019,92.225,439.481,79.589,434.085z"/>
	<path style="fill:#00C3FF;" d="M269.878,434.085c-12.637,5.396-21.494,17.934-21.494,32.543s8.858,27.147,21.494,32.543
		c12.637-5.396,21.494-17.934,21.494-32.543C291.372,452.019,282.514,439.481,269.878,434.085z"/>
	<path style="fill:#00C3FF;" d="M460.166,434.085c-12.637,5.396-21.495,17.934-21.495,32.543s8.858,27.147,21.495,32.543
		c12.637-5.396,21.494-17.934,21.494-32.543C481.66,452.019,472.803,439.481,460.166,434.085z"/>
</g>
<path d="M456.289,422.381v-22.412c0-20.607-16.766-37.373-37.373-37.373H266v-9.278c0-5.523-4.478-10-10-10s-10,4.477-10,10v9.278
	H93.084c-20.607,0-37.373,16.765-37.373,37.373v22.412c-20.22,4.568-35.371,22.666-35.371,44.248
	C20.34,491.646,40.693,512,65.711,512c25.019,0,45.372-20.354,45.372-45.372c0-21.582-15.151-39.68-35.372-44.248v-22.412
	c0-9.579,7.794-17.373,17.373-17.373H246v39.784c-20.221,4.568-35.372,22.666-35.372,44.248C210.628,491.646,230.981,512,256,512
	s45.372-20.354,45.372-45.372c0-21.582-15.151-39.68-35.372-44.248v-39.784h152.916c9.579,0,17.373,7.793,17.373,17.373v22.412
	c-20.221,4.568-35.372,22.666-35.372,44.248c0,25.018,20.354,45.372,45.372,45.372s45.371-20.354,45.371-45.372
	C491.66,445.047,476.509,426.949,456.289,422.381z M91.083,466.628c0,13.99-11.382,25.372-25.372,25.372
	c-13.989,0-25.371-11.382-25.371-25.372c0-13.99,11.382-25.372,25.371-25.372C79.701,441.256,91.083,452.638,91.083,466.628z
	 M281.372,466.628C281.372,480.618,269.99,492,256,492s-25.372-11.382-25.372-25.372c0-13.99,11.382-25.372,25.372-25.372
	S281.372,452.638,281.372,466.628z M446.289,492c-13.99,0-25.372-11.382-25.372-25.372c0-13.99,11.382-25.372,25.372-25.372
	c13.989,0,25.371,11.382,25.371,25.372S460.279,492,446.289,492z"/>
<path d="M412.922,156.922C412.922,70.395,342.527,0,256,0S99.078,70.395,99.078,156.922c0,49.278,22.839,93.315,58.48,122.105
	c0.257,0.254,0.515,0.508,0.802,0.737c7.836,6.236,16.122,11.648,24.777,16.211c0.001-0.036,0.001-0.072,0.002-0.108
	c21.786,11.471,46.577,17.977,72.861,17.977c32.349,0,62.442-9.842,87.446-26.685c0.014,0.016,0.029,0.032,0.044,0.048
	c3.459-2.335,6.846-4.813,10.151-7.443c0.287-0.228,0.545-0.482,0.802-0.737C390.083,250.237,412.922,206.2,412.922,156.922z
	 M119.078,156.922C119.078,81.423,180.501,20,256,20s136.922,61.423,136.922,136.922c0,37.997-15.563,72.424-40.642,97.255
	c-6.496-15.935-17.151-30.188-30.96-41.124c-9.447-7.482-20.171-13.22-31.584-17.046c10.448-9.78,16.995-23.678,16.995-39.085
	c0-29.533-24.026-53.56-53.559-53.56s-53.56,24.027-53.56,53.56c0,16.185,7.226,30.704,18.609,40.533
	c-9.902,3.772-19.219,9.007-27.541,15.598c-13.809,10.936-24.465,25.189-30.96,41.124
	C134.64,229.346,119.078,194.919,119.078,156.922z M253.172,190.481c-18.505,0-33.56-15.055-33.56-33.559
	c0-18.505,15.055-33.56,33.56-33.56c18.504,0,33.559,15.055,33.559,33.56C286.73,175.426,271.676,190.481,253.172,190.481z
	 M175.988,267.963c10.471-33.66,43.123-57.482,80.012-57.482s69.541,23.822,80.012,57.482
	c-22.522,16.274-50.165,25.881-80.012,25.881S198.51,284.237,175.988,267.963z"/>
<circle cx="256" cy="328.57" r="10"/>
<g>
</g>
<g>
</g>
<g>
</g>
<g>
</g>
<g>
</g>
<g>
</g>
<g>
</g>
<g>
</g>
<g>
</g>
<g>
</g>
<g>
</g>
<g>
</g>
<g>
</g>
<g>
</g>
<g>
</g>
</svg>
