<?xml version="1.0" standalone="no"?><!DOCTYPE svg PUBLIC "-//W3C//DTD SVG 1.1//EN" "http://www.w3.org/Graphics/SVG/1.1/DTD/svg11.dtd"><svg class="icon" width="64px" height="64.00px" viewBox="0 0 1024 1024" version="1.1" xmlns="http://www.w3.org/2000/svg"><path fill="#ffffff" d="M736 512c0 9.813333-0.853333 19.626667-2.133333 29.013333l63.146666 49.493334c5.546667 4.693333 7.253333 12.373333 3.413334 19.2l-59.733334 103.253333c-3.84 6.4-11.52 8.96-18.346666 6.4l-74.24-29.866667c-15.36 11.946667-32.426667 21.76-50.773334 29.44l-10.666666 78.933334c-1.28 7.253333-7.68 12.8-14.933334 12.8h-119.466666c-7.253333 0-13.653333-5.546667-14.933334-12.8L426.666667 718.933333c-18.773333-7.68-35.413333-17.493333-50.773334-29.44l-74.24 29.866667c-6.826667 2.56-14.506667 0-18.346666-6.4l-59.733334-103.253333a14.976 14.976 0 0 1 3.413334-19.2l63.146666-49.493334c-1.28-9.386667-2.133333-19.2-2.133333-29.013333 0-9.813333 0.853333-19.626667 2.133333-29.013333l-63.146666-49.493334a15.061333 15.061333 0 0 1-3.413334-19.2l59.733334-103.253333c3.84-6.826667 11.52-9.386667 18.346666-6.826667l74.24 30.293334c15.36-11.946667 32-22.186667 50.773334-29.44l10.666666-79.36c1.28-6.826667 7.68-12.373333 14.933334-12.373334h119.466666c7.253333 0 13.653333 5.546667 14.933334 12.373334L597.333333 305.066667c18.346667 7.253333 35.413333 17.493333 50.773334 29.44l74.24-30.293334c6.826667-2.56 14.506667 0 18.346666 6.826667l59.733334 103.253333c3.84 6.4 2.133333 14.506667-3.413334 19.2l-63.146666 49.493334c1.28 9.386667 2.133333 19.2 2.133333 29.013333M810.666667 128H213.333333c-47.36 0-85.333333 37.973333-85.333333 85.333333v597.333334a85.333333 85.333333 0 0 0 85.333333 85.333333h597.333334a85.333333 85.333333 0 0 0 85.333333-85.333333V213.333333a85.333333 85.333333 0 0 0-85.333333-85.333333m-298.666667 298.666667c-47.36 0-85.333333 37.973333-85.333333 85.333333a85.333333 85.333333 0 0 0 85.333333 85.333333 85.333333 85.333333 0 0 0 85.333333-85.333333 85.333333 85.333333 0 0 0-85.333333-85.333333z"  /></svg>