<?xml version="1.0" encoding="iso-8859-1"?>
<!-- Generator: Adobe Illustrator 19.0.0, SVG Export Plug-In . SVG Version: 6.00 Build 0)  -->
<svg version="1.1" id="Layer_1" xmlns="http://www.w3.org/2000/svg" xmlns:xlink="http://www.w3.org/1999/xlink" x="0px" y="0px"
	 viewBox="0 0 511.999 511.999" style="enable-background:new 0 0 511.999 511.999;" xml:space="preserve">
<path style="fill:#D84F48;" d="M496.359,97.653l-81.433-82.089c-6.133-6.182-14.907-8.899-23.423-7.258l-147.595,28.45
	c-5.149,0.993-9.885,3.521-13.591,7.259L15.631,260.43c-10.222,10.304-10.222,27.007,0,37.313l197.103,198.69
	c10.221,10.304,26.793,10.304,37.016,0l209.132-210.819c3.351-3.378,5.728-7.607,6.881-12.239l37.476-150.65
	C505.477,113.731,502.864,104.21,496.359,97.653z M422.161,137.479c-13.914,14.029-36.479,14.029-50.395,0
	c-13.917-14.029-13.917-36.774-0.001-50.802c13.917-14.03,36.481-14.029,50.396,0C436.078,100.707,436.079,123.451,422.161,137.479z
	"/>
<g style="opacity:0.2;">
	<path style="fill:#414042;" d="M70.355,297.744c-10.222-10.306-10.222-27.01,0-37.313L285.041,44.015
		c3.706-3.738,8.442-6.266,13.591-7.259l115.221-22.209c-6.058-5.456-14.317-7.789-22.349-6.241l-147.596,28.45
		c-5.149,0.993-9.885,3.521-13.591,7.259L15.631,260.43c-10.222,10.304-10.222,27.007,0,37.313l197.103,198.69
		c10.221,10.304,26.793,10.304,37.016,0l8.856-8.927L70.355,297.744z"/>
</g>
<polygon style="fill:#00B494;" points="290.346,302.724 345.936,302.166 304.659,260.556 345.946,218.937 290.903,218.944 
	290.909,163.459 249.624,205.077 208.347,163.467 208.34,218.953 153.3,218.958 194.577,260.567 153.291,302.186 207.782,301.626 
	208.328,357.664 249.613,316.047 290.888,357.655 "/>
<path style="fill:#F0D355;" d="M386.729,122.396c-6.242-6.292-6.243-16.497-0.001-22.788l75.352-75.959
	c6.243-6.291,16.363-6.291,22.606,0c6.242,6.293,6.242,16.496,0,22.788l-75.352,75.959
	C403.092,128.689,392.971,128.689,386.729,122.396z"/>
<g>
	<path style="fill:#636052;" d="M353.18,215.923c-1.217-2.92-4.071-4.822-7.235-4.822l-47.204,0.005l0.005-47.647
		c0-3.175-1.915-6.037-4.853-7.247c-2.935-1.21-6.312-0.527-8.548,1.726l-35.721,36.01l-35.713-36.001
		c-2.236-2.254-5.611-2.937-8.548-1.726c-2.935,1.208-4.851,4.07-4.852,7.245l-0.006,47.652l-47.205,0.004
		c-3.164,0-6.018,1.903-7.234,4.823s-0.558,6.287,1.671,8.533l35.801,36.09l-35.811,36.099c-2.238,2.257-2.892,5.641-1.654,8.57
		c1.237,2.928,4.127,4.805,7.299,4.786l46.651-0.48l0.469,48.198c0.03,3.161,1.958,5.994,4.887,7.184
		c0.955,0.389,1.955,0.577,2.948,0.577c2.05,0,4.065-0.806,5.565-2.318l35.721-36.009l35.714,36c2.245,2.263,5.639,2.94,8.584,1.713
		c2.942-1.23,4.847-4.119,4.816-7.309l-0.465-47.096l47.756-0.48c3.149-0.031,5.974-1.946,7.171-4.859
		c1.196-2.914,0.532-6.26-1.685-8.497l-35.802-36.09l35.811-36.099C353.738,222.21,354.397,218.844,353.18,215.923z M172.11,226.793
		l32.967-0.003l25.73,25.936l-32.965,0.004L172.11,226.793z M205.594,293.811l-33.297,0.342l25.545-25.749l32.96-0.004
		L205.594,293.811z M241.775,312.819l-25.793,26.002l-0.321-32.902l26.117-26.327L241.775,312.819z M241.782,241.535l-25.604-25.811
		l0.004-33.233l25.604,25.811L241.782,241.535z M257.46,208.306l25.61-25.818l-0.003,33.228l-25.61,25.816L257.46,208.306z
		 M257.448,312.818l0.004-33.232l25.079,25.28l0.331,33.568L257.448,312.818z M327.308,294.515l-32.646,0.327l-26.235-26.446
		l32.966-0.004L327.308,294.515z M301.396,252.718l-32.962,0.004l25.735-25.942l32.962-0.004L301.396,252.718z"/>
	<path style="fill:#636052;" d="M501.923,92.134l-25.765-25.972l14.091-14.205c9.252-9.326,9.252-24.5,0-33.826
		c-4.501-4.538-10.492-7.035-16.867-7.035c-6.374,0-12.364,2.498-16.867,7.035l-14.003,14.116L420.49,10.045
		C414.157,3.661,405.383,0,396.418,0c-2.14,0-4.292,0.205-6.398,0.611l-147.596,28.45c-6.726,1.297-12.838,4.56-17.671,9.434
		L10.068,254.911c-13.224,13.33-13.224,35.02,0,48.352l197.103,198.69c6.426,6.477,14.975,10.046,24.071,10.046
		c9.097,0,17.645-3.568,24.072-10.046l209.132-210.819c4.343-4.377,7.428-9.864,8.922-15.867l37.476-150.65
		C513.725,113.033,510.307,100.586,501.923,92.134z M467.644,29.168c1.537-1.549,3.575-2.401,5.74-2.401s4.204,0.852,5.74,2.4
		c3.213,3.24,3.214,8.512,0,11.75l-75.352,75.96c-1.536,1.547-3.575,2.401-5.739,2.401c-2.164,0-4.203-0.853-5.739-2.401
		c-3.214-3.241-3.215-8.512-0.001-11.75L467.644,29.168z M381.165,127.914c4.501,4.539,10.491,7.037,16.867,7.037
		s12.364-2.499,16.867-7.036l9.05-9.122c-1.168,4.828-3.616,9.403-7.351,13.169c-5.247,5.29-12.22,8.203-19.634,8.203
		c-7.415,0-14.387-2.913-19.636-8.205c-10.876-10.963-10.876-28.801-0.001-39.764c3.662-3.692,8.166-6.221,13.072-7.417
		l-9.234,9.308C371.914,103.414,371.914,118.587,381.165,127.914z M495.634,120.836l-37.476,150.649
		c-0.812,3.261-2.485,6.24-4.84,8.612L244.185,490.916c-3.462,3.489-8.058,5.412-12.945,5.412c-4.886,0-9.482-1.923-12.943-5.412
		L21.195,292.226c-7.186-7.245-7.186-19.033,0-26.275L235.88,49.532c2.605-2.627,5.894-4.384,9.51-5.081l147.595-28.449
		c1.13-0.217,2.284-0.328,3.431-0.328c4.887,0,9.485,1.922,12.945,5.41l22.112,22.29L405.825,69.23
		c-2.884-0.601-5.849-0.91-8.863-0.91c-11.625,0-22.549,4.559-30.762,12.839c-16.915,17.049-16.914,44.791,0,61.841
		c8.213,8.28,19.138,12.839,30.763,12.839s22.549-4.56,30.761-12.839c10.72-10.805,14.614-25.9,11.743-39.851l25.652-25.858
		l25.676,25.883C495.349,107.761,497.202,114.529,495.634,120.836z"/>
</g>
<g>
</g>
<g>
</g>
<g>
</g>
<g>
</g>
<g>
</g>
<g>
</g>
<g>
</g>
<g>
</g>
<g>
</g>
<g>
</g>
<g>
</g>
<g>
</g>
<g>
</g>
<g>
</g>
<g>
</g>
</svg>
