<?xml version="1.0" standalone="no"?><!DOCTYPE svg PUBLIC "-//W3C//DTD SVG 1.1//EN" "http://www.w3.org/Graphics/SVG/1.1/DTD/svg11.dtd"><svg class="icon" width="128px" height="128.00px" viewBox="0 0 1024 1024" version="1.1" xmlns="http://www.w3.org/2000/svg"><path d="M745.92 721.6c54.4-59.488 87.68-138.56 87.68-225.6 0-180.48-142.72-327.68-321.6-335.68v32c161.28 8 289.92 140.8 289.92 303.68 0 167.68-136.64 304-304.96 304-162.88 0-296-127.68-304.32-288h-32c8.32 177.92 155.84 319.68 336.32 319.68 87.04 0 166.432-33.28 226.24-87.36l180.192 179.52 22.72-22.4-180.192-179.84zM480 192.32v-32c-172.8 8.64-311.04 147.2-319.36 319.68h32c8-154.88 132.16-279.04 287.36-287.68z" fill="#2D2220" /><path d="M512 224.32v32.32c125.44 7.68 225.6 112 225.6 239.36 0 132.48-108.16 240-240.64 240-127.36 0-232-98.88-239.68-224H224.64c8.32 143.04 127.04 256 272.32 256 150.72 0 272.64-121.6 272.64-272 0-144.96-113.92-263.68-257.6-271.68z m-32 32.64V224.64c-137.6 8.32-247.36 118.4-255.36 255.36h32.64c7.36-119.36 103.04-215.04 222.72-223.04z" fill="#2D2220" /><path d="M737.6 496c0 110.4-74.88 203.2-176.64 231.04-101.76-27.84-176.672-120.64-176.672-231.04s74.88-203.2 176.672-231.04c101.76 27.84 176.64 120.64 176.64 231.04z" fill="#31CFFF" /><path d="M496 192C328 192 192 328 192 496s136 304 304 304 304-136 304-304S664 192 496 192z m0 576C345.92 768 224 646.08 224 496 224 345.92 345.92 224 496 224c150.08 0 272 121.92 272 272 0 150.08-121.92 272-272 272z" fill="#5FFFBA" /></svg>